<?xml version="1.0" encoding="UTF-8" standalone="no"?>
<!-- Created with Inkscape (http://www.inkscape.org/) -->

<svg
   xmlns:dc="http://purl.org/dc/elements/1.1/"
   xmlns:cc="http://creativecommons.org/ns#"
   xmlns:rdf="http://www.w3.org/1999/02/22-rdf-syntax-ns#"
   xmlns:svg="http://www.w3.org/2000/svg"
   xmlns="http://www.w3.org/2000/svg"
   xmlns:sodipodi="http://sodipodi.sourceforge.net/DTD/sodipodi-0.dtd"
   xmlns:inkscape="http://www.inkscape.org/namespaces/inkscape"
   width="204.3204mm"
   height="70.454681mm"
   viewBox="0 0 204.3204 70.454681"
   version="1.1"
   id="svg8"
   inkscape:version="0.92.4 (5da689c313, 2019-01-14)"
   sodipodi:docname="clipè.svg">
  <defs
     id="defs2" />
  <sodipodi:namedview
     id="base"
     pagecolor="#ffffff"
     bordercolor="#666666"
     borderopacity="1.0"
     inkscape:pageopacity="0.0"
     inkscape:pageshadow="2"
     inkscape:zoom="0.98994949"
     inkscape:cx="835.51138"
     inkscape:cy="163.18668"
     inkscape:document-units="mm"
     inkscape:current-layer="layer1"
     showgrid="false"
     inkscape:window-width="1920"
     inkscape:window-height="1017"
     inkscape:window-x="-8"
     inkscape:window-y="-8"
     inkscape:window-maximized="1"
     showguides="false"
     fit-margin-top="1.8"
     fit-margin-left="2"
     fit-margin-right="2"
     fit-margin-bottom="1" />
  <metadata
     id="metadata5">
    <rdf:RDF>
      <cc:Work
         rdf:about="">
        <dc:format>image/svg+xml</dc:format>
        <dc:type
           rdf:resource="http://purl.org/dc/dcmitype/StillImage" />
        <dc:title />
      </cc:Work>
    </rdf:RDF>
  </metadata>
  <g
     inkscape:label="Livello 1"
     inkscape:groupmode="layer"
     id="layer1"
     transform="translate(-4.1490869,-125.55907)">
    <path
       style="fill:#333333;fill-opacity:1;stroke:none;stroke-width:0.12045946px;stroke-linecap:butt;stroke-linejoin:miter;stroke-opacity:1"
       d="m 118.96545,128.77165 4.16247,0.0209 c 0,0 4.41646,0.0411 4.55166,3.24447 0.1352,3.20341 -1.26184,4.43549 -3.9658,4.5587 -2.70396,0.12322 -4.95725,0.041 -4.95725,0.041 v -0.61603 l 3.83061,0.0821 c 0,0 3.37993,-0.36962 3.37993,-2.50523 0,-2.13561 -0.40559,-2.50524 -0.40559,-2.50524 0,0 -0.85625,-1.6017 -3.06447,-1.76597 -2.20824,-0.16428 -4.46153,0.0411 -4.46153,0.0411 z"
       id="path841-6"
       inkscape:connector-curvature="0" />
    <path
       style="fill:#333333;fill-opacity:1;stroke:none;stroke-width:0.11887002px;stroke-linecap:butt;stroke-linejoin:miter;stroke-opacity:1"
       d="m 145.7903,128.69552 v 0.76416 h 3.60855 v 14.77385 h 1.61324 v -14.77385 h 3.60855 v -0.80662 z"
       id="path845-7"
       inkscape:connector-curvature="0" />
    <path
       style="fill:#333333;fill-opacity:1;stroke:none;stroke-width:0.26458332px;stroke-linecap:butt;stroke-linejoin:miter;stroke-opacity:1"
       d="m 156.81287,128.75335 h 1.22842 v 12.33147 c 0,0 0.51972,2.88207 3.59078,2.59859 2.32385,-0.17468 4.26229,-0.87448 4.25223,-2.92932 -0.0472,-1.41741 0,-12.00074 0,-12.00074 h 0.7087 v 12.42596 c 0,0 0.14175,2.96476 -4.15773,3.26005 -3.04729,0.28891 -5.22497,-0.99537 -5.57515,-3.07106 -0.23624,-1.79539 -0.0472,-12.61495 -0.0472,-12.61495 z"
       id="path889"
       inkscape:connector-curvature="0"
       sodipodi:nodetypes="cccccccccccc" />
    <path
       style="fill:#333333;fill-opacity:1;stroke:none;stroke-width:0.26458332px;stroke-linecap:butt;stroke-linejoin:miter;stroke-opacity:1"
       d="m 171.74292,128.7061 h 4.016 c 0,0 6.56733,0.16537 6.7327,6.77995 -0.02,3.01134 0.4586,4.8163 -4.83965,8.26068 l -6.94849,0.26741 0.42183,-0.73064 h 5.43681 c 0,0 1.20083,1.36656 3.40654,-2.17715 2.05524,-4.41759 0.20788,-9.11658 0.20788,-9.11658 0,0 -1.59551,-2.31331 -4.34673,-2.45685 -2.7167,-0.14174 -4.2286,-0.11811 -4.2286,-0.11811 z"
       id="path891"
       inkscape:connector-curvature="0"
       sodipodi:nodetypes="cccccccccscc" />
    <rect
       style="fill:#333333;fill-opacity:1;stroke:none;stroke-width:0.26458332"
       id="rect893"
       width="1.03944"
       height="15.30804"
       x="170.70348"
       y="128.7061" />
    <rect
       style="fill:#333333;fill-opacity:1;stroke:none;stroke-width:0.26458332"
       id="rect897"
       width="1.6704345"
       height="15.301181"
       x="185.75232"
       y="128.68701" />
    <path
       style="fill:#333333;fill-opacity:1;stroke:none;stroke-width:0.26458332px;stroke-linecap:butt;stroke-linejoin:miter;stroke-opacity:1"
       d="m 190.57775,137.20739 1.16521,0.14002 c 0,0 -0.87833,-8.55412 5.765,-8.29418 6.64333,0.25992 5.62682,9.48485 5.62682,9.48485 l 0.71762,0.0954 0.46125,-3.2977 c 0,0 -1.1678,-6.65948 -6.92218,-6.78793 -5.67844,-0.12676 -6.77311,6.48813 -6.77311,6.48813 z"
       id="path899"
       inkscape:connector-curvature="0"
       sodipodi:nodetypes="ccccccscc" />
    <path
       style="fill:#333333;fill-opacity:1;stroke:none;stroke-width:0.26274377px;stroke-linecap:butt;stroke-linejoin:miter;stroke-opacity:1"
       d="m 204.31365,135.33578 -1.21037,0.61506 c 0,0 0.86041,8.80176 -5.73673,8.54364 -6.59714,-0.25815 -5.58769,-9.41893 -5.58769,-9.41893 l -1.1605,-0.0396 -0.0102,3.21962 c 0,0 1.15968,6.61318 6.87404,6.74073 5.63897,0.12592 6.7969,-7.03359 6.7969,-7.03359 z"
       id="path899-1"
       inkscape:connector-curvature="0"
       sodipodi:nodetypes="ccccccscc" />
    <path
       style="fill:#000000;fill-opacity:0;stroke:none;stroke-width:0.26458332px;stroke-linecap:butt;stroke-linejoin:miter;stroke-opacity:1"
       d="m 143.65737,129.88973 -0.3675,0.90203 c 0,0 -2.77292,-4.10927 -5.64607,-0.33409 -1.87553,6.02406 9.7553,4.60814 5.71121,12.34165 -1.79051,2.3558 -5.48545,1.2631 -5.48545,1.2631 l -1.76256,-1.31035 0.33409,-0.93544 c 0,0 4.02861,4.4052 6.3004,-0.50587 0.49809,-6.00028 -9.36215,-3.65691 -5.76586,-11.08693 2.71734,-3.88578 6.68174,-0.33409 6.68174,-0.33409 z"
       id="path916"
       inkscape:connector-curvature="0"
       sodipodi:nodetypes="ccccccccccc" />
    <path
       style="fill:#333333;fill-opacity:1;stroke:none;stroke-width:0.26458332px;stroke-linecap:butt;stroke-linejoin:miter;stroke-opacity:1"
       d="m 143.65737,129.88974 -0.3675,0.90202 c 0,0 -2.13815,-2.73951 -4.71062,-1.26953 -2.57247,1.46998 -1.16931,5.57925 1.46998,6.44788 2.63929,0.70158 5.0237,1.95016 4.2429,5.67947 -0.16399,0.78325 -4.37655,5.64607 -8.18513,1.10249 l 0.33409,-0.93544 c 0,0 3.70837,4.17608 5.77971,0.53454 2.37201,-4.37654 -1.87089,-5.21176 -2.50565,-5.47903 -0.63477,-0.26727 -3.74178,-1.30294 -3.57473,-4.00904 0.16704,-2.7061 1.63702,-5.87992 7.51695,-2.97337"
       id="path856"
       inkscape:connector-curvature="0"
       sodipodi:nodetypes="ccscscccccc" />
    <path
       style="fill:#333333;stroke:none;stroke-width:0.26458332px;stroke-linecap:butt;stroke-linejoin:miter;stroke-opacity:1;fill-opacity:1"
       d="m 176.56213,143.2835 c 0,0 1.53869,0.16794 2.67262,-1.08411 1.13392,-1.25205 0.18898,0.23624 0.18898,0.23624 l -1.77176,1.3111 -0.95675,-0.0118 z"
       id="path32"
       inkscape:connector-curvature="0" />
    <path
       style="fill:#333333;fill-opacity:1;stroke:none;stroke-width:0.26417461px;stroke-linecap:butt;stroke-linejoin:miter;stroke-opacity:1"
       d="m 171.74292,144.01414 h 4.016 c 0,0 6.56733,-0.16486 6.7327,-6.75903 -0.02,-3.00205 0.41629,-4.29961 -4.88196,-7.73336 l -6.90618,-0.7684 0.42183,0.72838 h 5.43681 c 0,0 1.20083,-1.36233 3.40654,2.17043 2.05524,4.40396 0.20788,9.08844 0.20788,9.08844 0,0 -1.59551,2.30616 -4.34673,2.44926 -2.7167,0.14131 -4.2286,0.11774 -4.2286,0.11774 z"
       id="path891-5"
       inkscape:connector-curvature="0"
       sodipodi:nodetypes="cccccccccscc" />
    <path
       style="fill:#333333;fill-opacity:1;stroke:none;stroke-width:0.26458332px;stroke-linecap:butt;stroke-linejoin:miter;stroke-opacity:1"
       d="m 190.60816,138.25557 c 0,0 1.80022,-0.98935 0.0102,-3.21962 -0.004,-0.005 0.65256,1.11582 0.65256,1.11582 l -0.14465,-1.5292 0.12103,4.12779"
       id="path854"
       inkscape:connector-curvature="0"
       sodipodi:nodetypes="csccc" />
  </g>
  <g
     inkscape:groupmode="layer"
     id="layer2"
     inkscape:label="Livello 2"
     transform="translate(-4.1490869,-125.55907)">
    <path
       style="fill:#333333;fill-opacity:1;stroke:none;stroke-width:0.26458332px;stroke-linecap:butt;stroke-linejoin:miter;stroke-opacity:1"
       d="m 43.278274,147.01906 c 0,0 5.832501,-0.842 7.168848,2.29842 1.336349,3.14041 1.937705,5.07812 -0.868624,6.68173 -2.80633,1.60362 -19.577495,8.55263 -19.577495,8.55263 0,0 -12.628484,5.14494 -20.512935,-5.34539 -7.8844508,-10.49033 0.668174,-18.30796 0.668174,-18.30796 0,0 2.80633,-2.93997 9.755338,-5.67948 6.949007,-2.73951 18.708866,-6.94901 18.708866,-6.94901 0,0 10.958052,-2.40543 18.976136,0.60137 8.018087,3.00678 13.229841,9.35443 13.229841,9.35443 0,0 5.879931,6.41447 5.612661,14.43255 -0.273374,8.20121 -2.472242,9.68852 -2.472242,9.68852 0,0 -4.276313,9.15399 -14.633006,12.96258 -10.356697,3.80859 -12.895757,5.27857 -12.895757,5.27857 l 4.543583,7.14946 c 0,0 2.605879,5.27857 -2.739514,6.88219 -5.34539,1.60362 -7.951266,-2.20497 -7.951266,-2.20497 L 29.33283,176.17806 56.794775,164.08412 c 0,0 8.819894,-6.1472 7.951266,-12.42804 -0.834934,-6.03721 -4.075858,-10.08942 -8.418988,-12.49485 -5.078122,-3.14041 -9.554885,-2.3386 -9.554885,-2.3386 0,0 -4.877671,0.73499 -10.623965,3.14041 -6.414468,2.40543 -14.499372,6.01357 -14.499372,6.01357 0,0 -4.877668,1.5368 -3.474503,5.41221 1.403165,3.8754 5.61266,3.54132 5.61266,3.54132 z"
       id="path21"
       inkscape:connector-curvature="0"
       sodipodi:nodetypes="ccccscscccscsccscccsccccscc" />
    <rect
       style="fill:#333333;fill-opacity:1;stroke:none;stroke-width:0.26458332"
       id="rect831"
       width="4.0090427"
       height="34.878674"
       x="88.466217"
       y="156.81714" />
    <path
       style="fill:#333333;fill-opacity:1;stroke:none;stroke-width:0.26458332px;stroke-linecap:butt;stroke-linejoin:miter;stroke-opacity:1"
       d="m 92.475258,156.81714 8.727862,0.0482 c 0,0 9.26042,0.0945 9.5439,7.46502 0.28349,7.37054 -2.64583,10.20536 -8.31547,10.48884 -5.669645,0.28349 -10.39435,0.0945 -10.39435,0.0945 v -1.41741 l 8.032,0.18899 c 0,0 7.08705,-0.85045 7.08705,-5.76414 0,-4.91369 -0.85045,-5.76414 -0.85045,-5.76414 0,0 -1.79538,-3.68526 -6.425593,-4.06324 -4.630208,-0.37798 -9.35491,0.0945 -9.35491,0.0945 z"
       id="path841"
       inkscape:connector-curvature="0" />
    <rect
       style="fill:#333333;fill-opacity:1;stroke:none;stroke-width:0.26458332"
       id="rect833"
       width="4.0090427"
       height="34.878674"
       x="143.39011"
       y="156.68349" />
    <path
       style="fill:#333333;fill-opacity:1;stroke:none;stroke-width:0.26458332px;stroke-linecap:butt;stroke-linejoin:miter;stroke-opacity:1"
       d="m 122.40944,161.09344 12.2944,30.60236 h 3.74177 l -14.03165,-36.34865 z"
       id="path835"
       inkscape:connector-curvature="0" />
    <path
       style="fill:#333333;fill-opacity:1;stroke:none;stroke-width:0.26458332px;stroke-linecap:butt;stroke-linejoin:miter;stroke-opacity:1"
       d="m 109.71414,191.42853 14.69982,-36.08138 1.06908,3.60814 -3.0736,2.13815 v 0 0 l 0.96885,2.27179 -11.11936,28.2739 z"
       id="path837"
       inkscape:connector-curvature="0" />
    <path
       style="fill:#333333;fill-opacity:1;stroke:none;stroke-width:0.26458332px;stroke-linecap:butt;stroke-linejoin:miter;stroke-opacity:1"
       d="m 130.1183,179.07143 h -14.1741 v 1.41741 h 15.21354 z"
       id="path839"
       inkscape:connector-curvature="0" />
    <path
       style="fill:#333333;fill-opacity:1;stroke:none;stroke-width:0.26458332px;stroke-linecap:butt;stroke-linejoin:miter;stroke-opacity:1"
       d="m 186.81473,156.86533 v 1.70089 h 8.03199 v 32.88393 h 3.59078 v -32.88393 h 8.03199 v -1.79539 z"
       id="path845"
       inkscape:connector-curvature="0" />
    <path
       style="fill:#333333;fill-opacity:1;stroke:none;stroke-width:0.26458332px;stroke-linecap:butt;stroke-linejoin:miter;stroke-opacity:1"
       d="m 156.95461,156.67634 v 34.58482 h 1.88988 V 161.968 l 23.52902,30.52158 v -35.71875 h -1.98437 v 26.9308 l -20.88319,-27.11979 z"
       id="path843"
       inkscape:connector-curvature="0" />
    <path
       style="fill:#333333;fill-opacity:1;stroke:none;stroke-width:0.26458332px;stroke-linecap:butt;stroke-linejoin:miter;stroke-opacity:1"
       d="m 99.454985,131.8244 1.039435,-0.0472 c 0,0 -3.265577,-3.66203 -6.484308,-3.12977 -3.502637,0.5792 -4.642367,2.30295 -4.642367,2.30295 0,0 -1.441034,1.44103 -1.630024,4.41759 -0.188987,2.22061 0.141743,3.2128 0.141743,3.2128 0,0 0.944941,5.90587 5.811382,5.95312 4.866444,0.0472 6.756324,-2.88207 6.756324,-2.88207 l -0.708703,-0.8032 c 0,0 -7.824244,7.27979 -10.252604,-1.32291 -2.732498,-9.68014 5.085483,-10.37576 5.085483,-10.37576 0,0 2.568534,-0.39656 4.883639,2.67449 z"
       id="path847"
       inkscape:connector-curvature="0"
       sodipodi:nodetypes="ccsccccccsccc" />
    <path
       style="fill:#333333;fill-opacity:1;stroke:none;stroke-width:0.26458332px;stroke-linecap:butt;stroke-linejoin:miter;stroke-opacity:1"
       d="m 103.09301,128.89509 h 1.70089 v 14.07961 h 5.48065 l -0.0236,1.06306 -7.15792,0.0236 z"
       id="path849"
       inkscape:connector-curvature="0"
       sodipodi:nodetypes="ccccccc" />
    <path
       style="fill:#333333;fill-opacity:1;stroke:none;stroke-width:0.26458332px;stroke-linecap:butt;stroke-linejoin:miter;stroke-opacity:1"
       d="m 111.88095,128.80059 h 1.70089 v 15.21355 h -1.5119 z"
       id="path851"
       inkscape:connector-curvature="0" />
    <rect
       style="fill:#333333;fill-opacity:1;stroke:none;stroke-width:0.26479018"
       id="rect870"
       width="1.400589"
       height="15.124665"
       x="118.03548"
       y="128.76331" />
  </g>
</svg>
