<svg width="154" height="41" viewBox="0 0 154 41" fill="none" xmlns="http://www.w3.org/2000/svg">
<path d="M21.8617 25.4972C20.7499 25.4972 19.8486 24.6231 19.8486 23.5448V20.9191C19.8486 19.8409 20.7499 18.9668 21.8617 18.9668H34.27C35.3818 18.9668 36.2831 19.8409 36.2831 20.9191V34.6329C36.2831 35.1467 36.0787 35.6445 35.685 35.9884C34.0272 37.4362 31.9119 38.6146 29.3389 39.5236C26.4841 40.5079 23.7451 41 21.1217 41C14.5634 41 9.39386 39.145 5.61317 35.4349C1.87106 31.7248 0 26.7465 0 20.5C0 14.6699 1.85177 9.80517 5.5553 5.90581C9.25884 1.9686 14.139 0 20.1958 0C24.7521 0 28.644 1.02858 31.8716 3.08574C32.6778 3.59958 32.8924 4.63052 32.4443 5.4591L31.4599 7.27981C30.8347 8.43602 29.2075 8.69104 28.0079 8.09867C27.46 7.8281 26.8621 7.5893 26.2141 7.38227C24.5552 6.8144 22.8385 6.53047 21.0639 6.53047C17.0517 6.53047 13.7918 7.77978 11.2842 10.2784C8.77661 12.7392 7.52281 16.1464 7.52281 20.5C7.52281 24.7022 8.77661 28.0905 11.2842 30.6648C13.7918 33.2013 17.1096 34.4695 21.2375 34.4695C22.7806 34.4695 24.3623 34.2045 25.9826 33.6745C27.2262 33.2488 28.2205 32.7805 28.9654 32.2697C29.4126 31.9631 29.6283 31.4436 29.6283 30.9124V27.4496C29.6283 26.3713 28.727 25.4972 27.6152 25.4972H21.8617Z" fill="white"/>
<path d="M42.8653 40.3753C41.4288 40.3753 40.4546 38.958 41.0071 37.672L56.4582 1.71245C56.7708 0.984951 57.5037 0.51108 58.3164 0.51108H61.8822C62.6948 0.51108 63.4277 0.984951 63.7403 1.71245L79.1914 37.672C79.744 38.958 78.7697 40.3753 77.3332 40.3753H74.1313C73.3101 40.3753 72.5712 39.8916 72.2642 39.1528L69.056 31.433C68.749 30.6943 68.0101 30.2105 67.1889 30.2105H52.6045C51.7833 30.2105 51.0444 30.6943 50.7374 31.433L47.5292 39.1528C47.2222 39.8916 46.4833 40.3753 45.6621 40.3753H42.8653ZM61.7825 13.9883C61.1049 12.365 58.7365 12.3611 58.0532 13.9822L55.0997 20.9889C54.5583 22.2732 55.5324 23.6801 56.963 23.6801H62.8414C64.2692 23.6801 65.2431 22.2785 64.7073 20.995L61.7825 13.9883Z" fill="white"/>
<path d="M88.4331 40.3753C87.3213 40.3753 86.42 39.5012 86.42 38.423V2.57703C86.42 1.49876 87.3213 0.624652 88.4331 0.624652H107.843C108.955 0.624652 109.856 1.49876 109.856 2.57703V5.20274C109.856 6.28101 108.955 7.15512 107.843 7.15512H95.5508C94.439 7.15512 93.5378 8.02923 93.5378 9.1075V15.0836C93.5378 16.1619 94.439 17.036 95.5508 17.036H106.107C107.219 17.036 108.12 17.9101 108.12 18.9884V21.6141C108.12 22.6924 107.219 23.5665 106.107 23.5665H95.5508C94.439 23.5665 93.5378 24.4406 93.5378 25.5189V31.8925C93.5378 32.9708 94.439 33.8449 95.5508 33.8449H108.422C109.534 33.8449 110.435 34.719 110.435 35.7973V38.423C110.435 39.5012 109.534 40.3753 108.422 40.3753H88.4331Z" fill="white"/>
<path d="M117.517 40.3753C116.08 40.3753 115.106 38.958 115.659 37.672L131.11 1.71245C131.422 0.984951 132.155 0.51108 132.968 0.51108H136.534C137.346 0.51108 138.079 0.984951 138.392 1.71245L153.843 37.672C154.396 38.958 153.421 40.3753 151.985 40.3753H148.783C147.962 40.3753 147.223 39.8916 146.916 39.1528L143.708 31.433C143.401 30.6943 142.662 30.2105 141.841 30.2105H127.256C126.435 30.2105 125.696 30.6943 125.389 31.433L122.181 39.1528C121.874 39.8916 121.135 40.3753 120.314 40.3753H117.517ZM136.434 13.9883C135.756 12.365 133.388 12.3611 132.705 13.9822L129.751 20.9888C129.21 22.2732 130.184 23.6801 131.615 23.6801H137.493C138.921 23.6801 139.895 22.2785 139.359 20.995L136.434 13.9883Z" fill="white"/>
</svg>
